<?xml version="1.0" encoding="utf-8"?>
<!-- Generator: Adobe Illustrator 25.2.1, SVG Export Plug-In . SVG Version: 6.00 Build 0)  -->
<svg version="1.1" id="レイヤー_1" focusable="false"
	 xmlns="http://www.w3.org/2000/svg" xmlns:xlink="http://www.w3.org/1999/xlink" x="0px" y="0px" viewBox="0 0 864 759"
	 style="enable-background:new 0 0 864 759;" xml:space="preserve">
<style type="text/css">
	.st0{opacity:0.6;fill:#FFFFFF;}
</style>
<path class="st0" d="M183.9,685.6V109.9c0-19.2-10.5-34.8-23.4-34.8H67c-12.9,0-23.4,15.6-23.4,34.8v575.7
	c0,19.2,10.5,34.8,23.4,34.8h93.5C173.5,720.4,183.9,704.8,183.9,685.6z M272,109.9v575.7c0,19.2,10.5,34.8,23.4,34.8h93.5
	c12.9,0,23.4-15.6,23.4-34.8V109.9c0-19.2-10.5-34.8-23.4-34.8h-93.5C282.5,75.1,272,90.7,272,109.9z M479,154.4l207.1,537.1
	c6.9,18,22.3,28.7,34.3,24.1l87.3-33.7c12.1-4.6,16.2-23,9.3-40.9L609.8,104c-6.9-18-22.3-28.7-34.3-24.1l-87.3,33.7
	C476.2,118.2,472,136.5,479,154.4z"/>
</svg>
