<?xml version="1.0" encoding="utf-8"?>
<!-- Generator: Adobe Illustrator 25.2.1, SVG Export Plug-In . SVG Version: 6.00 Build 0)  -->
<svg version="1.1" id="レイヤー_1" focusable="false"
	 xmlns="http://www.w3.org/2000/svg" xmlns:xlink="http://www.w3.org/1999/xlink" x="0px" y="0px" viewBox="0 0 320 512"
	 style="enable-background:new 0 0 320 512;" xml:space="preserve">
<style type="text/css">
	.st0{opacity:0.6;fill:#FFFFFF;}
</style>
<path class="st0" d="M69.7,366V146c0-7.4-4-13.3-8.9-13.3H25c-4.9,0-8.9,6-8.9,13.3V366c0,7.4,4,13.3,8.9,13.3h35.8
	C65.7,379.4,69.7,373.4,69.7,366z M103.4,146V366c0,7.4,4,13.3,8.9,13.3h35.8c4.9,0,8.9-6,8.9-13.3V146c0-7.4-4-13.3-8.9-13.3h-35.8
	C107.4,132.6,103.4,138.6,103.4,146z M182.5,163l79.2,205.3c2.6,6.9,8.5,11,13.1,9.2l33.4-12.9c4.6-1.8,6.2-8.8,3.5-15.6
	l-79.2-205.3c-2.6-6.9-8.5-11-13.1-9.2L186,147.3C181.4,149.1,179.8,156.1,182.5,163z"/>
</svg>
