<?xml version="1.0" encoding="utf-8"?>
<!-- Generator: Adobe Illustrator 25.2.1, SVG Export Plug-In . SVG Version: 6.00 Build 0)  -->
<svg version="1.1" id="レイヤー_1" focusable="false"
	 xmlns="http://www.w3.org/2000/svg" xmlns:xlink="http://www.w3.org/1999/xlink" x="0px" y="0px" viewBox="0 0 448 512"
	 style="enable-background:new 0 0 448 512;" xml:space="preserve">
<style type="text/css">
	.st0{opacity:0.6;fill:#FFFFFF;}
</style>
<path class="st0" d="M-168,229h-144V85c0-17.7-14.3-32-32-32h-32c-17.7,0-32,14.3-32,32v144h-144c-17.7,0-32,14.3-32,32v32
	c0,17.7,14.3,32,32,32h144v144c0,17.7,14.3,32,32,32h32c17.7,0,32-14.3,32-32V325h144c17.7,0,32-14.3,32-32v-32
	C-136,243.3-150.3,229-168,229z"/>
<path class="st0" d="M319.7,277.1c15.8,0,29.7-8.6,36.8-21.7l75.4-136.6c7.8-13.9-2.3-31.2-18.3-31.2H102L82.2,45.5H13.4v42.1h42.1
	l75.8,159.8l-28.4,51.4c-15.4,28.2,4.8,62.5,36.8,62.5h252.7v-42.1H139.7l23.2-42.1H319.7z M122,129.7h255.8l-58.1,105.3H171.9
	L122,129.7z M139.7,382.3c-23.2,0-41.9,18.9-41.9,42.1s18.7,42.1,41.9,42.1s42.1-18.9,42.1-42.1S162.9,382.3,139.7,382.3z
	 M350.2,382.3c-23.2,0-41.9,18.9-41.9,42.1s18.7,42.1,41.9,42.1c23.2,0,42.1-18.9,42.1-42.1S373.4,382.3,350.2,382.3z"/>
</svg>
