<?xml version="1.0" encoding="utf-8"?>
<!-- Generator: Adobe Illustrator 25.2.1, SVG Export Plug-In . SVG Version: 6.00 Build 0)  -->
<svg version="1.1" id="レイヤー_1" focusable="false"
	 xmlns="http://www.w3.org/2000/svg" xmlns:xlink="http://www.w3.org/1999/xlink" x="0px" y="0px" viewBox="0 0 496 512"
	 style="enable-background:new 0 0 496 512;" xml:space="preserve">
<style type="text/css">
	.st0{opacity:0.6;fill:#FFFFFF;}
</style>
<path class="st0" d="M248,14c66.5,0,120.5,53.9,120.5,120.5S314.5,254.9,248,254.9S127.5,201,127.5,134.4S181.5,14,248,14z
	 M248,484.9c-80.4,0-152.4-36.4-200.5-93.4c25.7-48.5,76.1-81.9,134.8-81.9c3.3,0,6.6,0.5,9.7,1.5c17.8,5.7,36.4,9.4,56,9.4
	s38.3-3.7,56-9.4c3.1-1,6.4-1.5,9.7-1.5c58.7,0,109.1,33.4,134.8,81.9C400.4,448.5,328.4,484.9,248,484.9z"/>
</svg>
